<?xml version="1.0" standalone="no"?>
<!DOCTYPE svg PUBLIC "-//W3C//DTD SVG 20010904//EN"
 "http://www.w3.org/TR/2001/REC-SVG-20010904/DTD/svg10.dtd">
<svg version="1.0" xmlns="http://www.w3.org/2000/svg"
 width="1024.000000pt" height="1024.000000pt" viewBox="0 0 1024.000000 1024.000000"
 preserveAspectRatio="xMidYMid meet">
<metadata>
Created by potrace 1.11, written by Peter Selinger 2001-2013
</metadata>
<g transform="translate(0.000000,1024.000000) scale(0.100000,-0.100000)"
fill="#000000" stroke="none">
<path d="M4835 10234 c-413 -27 -823 -99 -1188 -209 -1214 -364 -2255 -1172
-2911 -2258 -394 -652 -631 -1366 -712 -2142 -25 -238 -25 -772 0 -1010 34
-328 102 -672 190 -965 365 -1217 1172 -2258 2259 -2914 652 -394 1366 -631
2142 -712 239 -25 772 -25 1010 0 1062 111 1980 498 2796 1177 159 133 485
459 618 618 602 723 984 1549 1136 2458 52 311 60 421 60 833 0 478 -15 639
-97 1030 -97 468 -215 812 -423 1235 -258 526 -564 955 -975 1365 -391 392
-820 702 -1308 949 -573 288 -1159 460 -1797 526 -143 15 -670 27 -800 19z
m2898 -1977 c262 -122 346 -166 344 -178 -2 -8 -663 -1422 -1468 -3142 l-1464
-3127 -369 3 -369 2 -1124 2390 c-617 1315 -1123 2393 -1123 2398 0 4 200 7
444 7 l443 0 864 -1835 c475 -1009 867 -1835 870 -1835 3 0 567 1203 1254
2673 687 1469 1264 2705 1283 2745 27 56 39 72 51 67 9 -3 172 -79 364 -168z"/>
</g>
</svg>
